<svg xmlns="http://www.w3.org/2000/svg" viewBox="0 0 286.55 215.59">
  <title>svg-image</title>
  <g id="shelf">
    <path d="M273.77,215.86h-217V193.6h217ZM58.15,214.44H272.35V195H58.15Z" transform="translate(-56.73 -16.13)"/>
    <path d="M79.49,231.72H71.75V214.44H81Zm-6.32-1.42h5l1.29-14.44H73.17Z" transform="translate(-56.73 -16.13)"/>
    <path d="M254.89,230.77h-7.74l-1.55-16.33h9.29Zm-6.45-1.42h5V215.86h-6.31Z" transform="translate(-56.73 -16.13)"/>
  </g>
  <g id="ball1">
    <path d="M101.93,195.48a26.28,26.28,0,1,1,26.28-26.28A26.31,26.31,0,0,1,101.93,195.48Zm0-51.14a24.86,24.86,0,1,0,24.86,24.86A24.89,24.89,0,0,0,101.93,144.35Z" transform="translate(-56.73 -16.13)"/>
  </g>
  <g id="ball2">
    <path d="M154.6,195.48a20.84,20.84,0,1,1,20.84-20.84A20.86,20.86,0,0,1,154.6,195.48Zm0-40.26A19.42,19.42,0,1,0,174,174.64,19.44,19.44,0,0,0,154.6,155.22Z" transform="translate(-56.73 -16.13)"/>
  </g>
  <g id="book1">
    <path d="M210,195H185.43V119.28H210Zm-23.17-1.42H208.6V120.7H186.85Z" transform="translate(-56.73 -16.13)"/>
  </g>
  <g id="book2">
    <path d="M264.41,194.95h-52v-52h52Zm-50.6-1.42H263V144.35H213.81Z" transform="translate(-56.73 -16.13)"/>
  </g>
  <g id="ball3">
    <path d="M311.35,80a31.92,31.92,0,1,1,31.92-31.92A32,32,0,0,1,311.35,80Zm0-62.43a30.5,30.5,0,1,0,30.5,30.5A30.54,30.54,0,0,0,311.35,17.55Z" transform="translate(-56.73 -16.13)"/>
  </g>
</svg>
